<mxfile host="app.diagrams.net" modified="2023-11-29T09:16:58.828Z" agent="Mozilla/5.0 (Macintosh; Intel Mac OS X 10_15_7) AppleWebKit/537.36 (KHTML, like Gecko) Chrome/119.0.0.0 Safari/537.36" etag="GDPojcKT065Rp8eqQ22b" version="22.1.4" type="device">
  <diagram id="9LHcHcHHkXE40fqb0kTf" name="Page-1">
    <mxGraphModel dx="1290" dy="1746" grid="1" gridSize="10" guides="1" tooltips="1" connect="1" arrows="1" fold="1" page="1" pageScale="1" pageWidth="827" pageHeight="1169" math="0" shadow="0">
      <root>
        <mxCell id="0" />
        <mxCell id="1" parent="0" />
        <mxCell id="WRfPan0uZQ_CYyY2pq0v-2" style="edgeStyle=orthogonalEdgeStyle;rounded=0;orthogonalLoop=1;jettySize=auto;html=1;exitX=1;exitY=0.5;exitDx=0;exitDy=0;" parent="1" source="WRfPan0uZQ_CYyY2pq0v-1" target="WRfPan0uZQ_CYyY2pq0v-3" edge="1">
          <mxGeometry relative="1" as="geometry">
            <mxPoint x="370" y="-470" as="targetPoint" />
          </mxGeometry>
        </mxCell>
        <mxCell id="WRfPan0uZQ_CYyY2pq0v-1" value="Source Code Link" style="rounded=0;whiteSpace=wrap;html=1;" parent="1" vertex="1">
          <mxGeometry x="80" y="-500" width="120" height="60" as="geometry" />
        </mxCell>
        <mxCell id="tZC1f7N6wlPJeMJOyxJ9-1" style="edgeStyle=orthogonalEdgeStyle;rounded=0;orthogonalLoop=1;jettySize=auto;html=1;exitX=1;exitY=0.5;exitDx=0;exitDy=0;" edge="1" parent="1" source="WRfPan0uZQ_CYyY2pq0v-3" target="tZC1f7N6wlPJeMJOyxJ9-2">
          <mxGeometry relative="1" as="geometry">
            <mxPoint x="520" y="-470" as="targetPoint" />
          </mxGeometry>
        </mxCell>
        <mxCell id="WRfPan0uZQ_CYyY2pq0v-3" value="Create Zip" style="rounded=0;whiteSpace=wrap;html=1;" parent="1" vertex="1">
          <mxGeometry x="240" y="-500" width="120" height="60" as="geometry" />
        </mxCell>
        <mxCell id="tZC1f7N6wlPJeMJOyxJ9-2" value="Invoke Code Generator" style="rounded=0;whiteSpace=wrap;html=1;" vertex="1" parent="1">
          <mxGeometry x="400" y="-500" width="120" height="60" as="geometry" />
        </mxCell>
        <mxCell id="tZC1f7N6wlPJeMJOyxJ9-3" value="" style="endArrow=classic;html=1;rounded=0;exitX=1;exitY=0.5;exitDx=0;exitDy=0;" edge="1" parent="1" source="tZC1f7N6wlPJeMJOyxJ9-2">
          <mxGeometry width="50" height="50" relative="1" as="geometry">
            <mxPoint x="440" y="-460" as="sourcePoint" />
            <mxPoint x="600" y="-470" as="targetPoint" />
          </mxGeometry>
        </mxCell>
        <mxCell id="tZC1f7N6wlPJeMJOyxJ9-4" value="Generate Business Flow Document" style="rounded=0;whiteSpace=wrap;html=1;" vertex="1" parent="1">
          <mxGeometry x="560" y="-500" width="120" height="60" as="geometry" />
        </mxCell>
      </root>
    </mxGraphModel>
  </diagram>
</mxfile>
